<svg width="539" height="440" xmlns="http://www.w3.org/2000/svg" xmlns:xlink="http://www.w3.org/1999/xlink" overflow="hidden"><defs><clipPath id="clip0"><rect x="349" y="140" width="539" height="440"/></clipPath></defs><g clip-path="url(#clip0)" transform="translate(-349 -140)"><path d="M350 214.668C350 174.535 382.534 142 422.668 142L813.332 142C853.466 142 886 174.535 886 214.668L886 505.332C886 545.465 853.466 578 813.332 578L422.668 578C382.534 578 350 545.465 350 505.332Z" stroke="#000000" stroke-width="2" stroke-miterlimit="8" fill="#F2F2F2" fill-rule="evenodd"/><text font-family="Calibri,Calibri_MSFontService,sans-serif" font-weight="700" font-size="32" transform="translate(585.6 182)">Host</text><rect x="576.5" y="519.5" width="92" height="41" stroke="#2F528F" stroke-width="1.33333" stroke-miterlimit="8" fill="#8FAADC"/><text font-family="Calibri,Calibri_MSFontService,sans-serif" font-weight="400" font-size="24" transform="translate(599.465 547)">eth0</text><path d="M396 386.167C396 377.238 403.238 370 412.167 370L816.833 370C825.762 370 833 377.238 833 386.167L833 450.833C833 459.762 825.762 467 816.833 467L412.167 467C403.238 467 396 459.762 396 450.833Z" stroke="#000000" stroke-width="2" stroke-miterlimit="8" fill="#FFF2CC" fill-rule="evenodd"/><text font-family="Calibri,Calibri_MSFontService,sans-serif" font-weight="400" font-size="24" transform="translate(498.629 441)">d<tspan font-size="24" x="12.6667" y="0">ocker0 172.16.17.1/16</tspan></text><path d="M396 236.667C396 226.357 404.357 218 414.667 218L574.333 218C584.643 218 593 226.357 593 236.667L593 311.333C593 321.643 584.643 330 574.333 330L414.667 330C404.357 330 396 321.643 396 311.333Z" stroke="#000000" stroke-width="2" stroke-miterlimit="8" fill="#FFF2CC" fill-rule="evenodd"/><path d="M623 236.667C623 226.357 631.357 218 641.667 218L801.333 218C811.643 218 820 226.357 820 236.667L820 311.333C820 321.643 811.643 330 801.333 330L641.667 330C631.357 330 623 321.643 623 311.333Z" stroke="#000000" stroke-width="2" stroke-miterlimit="8" fill="#FFF2CC" fill-rule="evenodd"/><rect x="449.5" y="290.5" width="91" height="41" stroke="#2F528F" stroke-width="1.33333" stroke-miterlimit="8" fill="#8FAADC"/><text font-family="Calibri,Calibri_MSFontService,sans-serif" font-weight="400" font-size="24" transform="translate(472.278 318)">eth0</text><rect x="687.5" y="290.5" width="92" height="41" stroke="#2F528F" stroke-width="1.33333" stroke-miterlimit="8" fill="#8FAADC"/><text font-family="Calibri,Calibri_MSFontService,sans-serif" font-weight="400" font-size="24" transform="translate(710.566 318)">eth0</text><rect x="449.5" y="370.5" width="91" height="41" stroke="#2F528F" stroke-width="1.33333" stroke-miterlimit="8" fill="#8FAADC"/><text font-family="Calibri,Calibri_MSFontService,sans-serif" font-weight="400" font-size="24" transform="translate(466.125 398)">Veth*</text><rect x="687.5" y="371.5" width="92" height="41" stroke="#2F528F" stroke-width="1.33333" stroke-miterlimit="8" fill="#8FAADC"/><text font-family="Calibri,Calibri_MSFontService,sans-serif" font-weight="400" font-size="24" transform="translate(704.413 399)">Veth<tspan font-size="24" x="45.0134" y="0">*</tspan><tspan font-size="24" x="-271.982" y="-152">Container 1</tspan><tspan font-size="24" x="-289.822" y="-123">172.16.17.2/1</tspan><tspan font-size="24" x="-152.988" y="-123">6</tspan><tspan font-size="24" x="-39.5322" y="-152">Container 2</tspan><tspan font-size="24" x="-57.3722" y="-123">172.16.17.3/16</tspan></text></g></svg>