<svg width="791" height="280" xmlns="http://www.w3.org/2000/svg" xmlns:xlink="http://www.w3.org/1999/xlink" overflow="hidden"><defs><clipPath id="clip0"><rect x="237" y="151" width="791" height="280"/></clipPath></defs><g clip-path="url(#clip0)" transform="translate(-237 -151)"><rect x="618.5" y="152.5" width="186" height="46" stroke="#000000" stroke-width="1.33333" stroke-miterlimit="8" fill="#FFE699"/><text font-family="Calibri,Calibri_MSFontService,sans-serif" font-weight="400" font-size="24" transform="translate(688.356 183)">4 GB</text><rect x="804.5" y="152.5" width="96" height="46" stroke="#000000" stroke-width="1.33333" stroke-miterlimit="8" fill="#E7E6E6"/><text font-family="Calibri,Calibri_MSFontService,sans-serif" font-weight="400" font-size="24" transform="translate(829.083 183)">2 GB</text><rect x="771.5" y="263.5" width="74" height="46" stroke="#000000" stroke-width="1.33333" stroke-miterlimit="8" fill="#E7E6E6"/><text font-family="Calibri,Calibri_MSFontService,sans-serif" font-weight="400" font-size="24" transform="translate(785.083 294)">1 GB</text><rect x="618.5" y="263.5" width="153" height="46" stroke="#000000" stroke-width="1.33333" stroke-miterlimit="8" fill="#FFE699"/><text font-family="Calibri,Calibri_MSFontService,sans-serif" font-weight="400" font-size="24" transform="translate(671.629 294)">3 GB</text><rect x="713.5" y="378.5" width="187" height="45" stroke="#000000" stroke-width="1.33333" stroke-miterlimit="8" fill="#E7E6E6"/><text font-family="Calibri,Calibri_MSFontService,sans-serif" font-weight="400" font-size="24" transform="translate(783.629 408)">4 GB</text><rect x="618.5" y="378.5" width="95" height="45" stroke="#000000" stroke-width="1.33333" stroke-miterlimit="8" fill="#FFE699"/><text font-family="Calibri,Calibri_MSFontService,sans-serif" font-weight="400" font-size="24" transform="translate(642.901 408)">2 GB</text><path d="M239.5 220.75C239.5 233.038 279.347 243 328.5 243 377.653 243 417.5 233.038 417.5 220.75L417.5 362.25C417.5 374.538 377.653 384.5 328.5 384.5 279.347 384.5 239.5 374.538 239.5 362.25Z" fill="#8FAADC" fill-rule="evenodd"/><path d="M239.5 220.75C239.5 208.462 279.347 198.5 328.5 198.5 377.653 198.5 417.5 208.462 417.5 220.75 417.5 233.038 377.653 243 328.5 243 279.347 243 239.5 233.038 239.5 220.75Z" fill="#BCCCEA" fill-rule="evenodd"/><path d="M417.5 220.75C417.5 233.038 377.653 243 328.5 243 279.347 243 239.5 233.038 239.5 220.75 239.5 208.462 279.347 198.5 328.5 198.5 377.653 198.5 417.5 208.462 417.5 220.75L417.5 362.25C417.5 374.538 377.653 384.5 328.5 384.5 279.347 384.5 239.5 374.538 239.5 362.25L239.5 220.75" stroke="#2F528F" stroke-width="1.33333" stroke-miterlimit="8" fill="none" fill-rule="evenodd"/><text fill="#FFFFFF" font-family="Calibri,Calibri_MSFontService,sans-serif" font-weight="400" font-size="24" transform="translate(259.623 295)">Total Memory<tspan font-size="24" x="39.0133" y="29">16</tspan><tspan font-size="24" x="68.8467" y="29">G</tspan><tspan font-size="24" x="84.0133" y="29">B</tspan><tspan fill="#000000" font-size="27" x="699.795" y="-106">VM1</tspan><tspan fill="#000000" font-size="27" x="699.795" y="-3">VM2</tspan><tspan fill="#000000" font-size="27" x="699.795" y="112">VM3</tspan></text><path d="M0.553052-0.833147 164.817 108.207 163.711 109.873-0.553052 0.833147ZM165.365 104.97 169.818 112.727 160.941 111.636Z" fill="#4472C4" transform="matrix(1 0 0 -1 417 290.727)"/><path d="M0.0284017-0.999597 173.001 3.91511 172.944 5.9143-0.0284017 0.999597ZM171.753 0.878442 179.636 5.10404 171.526 8.87521Z" fill="#4472C4" transform="matrix(1 0 0 -1 417 293.104)"/><path d="M417.548 290.164 581.79 397.782 580.694 399.455 416.452 291.836ZM582.319 394.542 586.818 402.273 577.935 401.234Z" fill="#4472C4"/><text font-family="Calibri,Calibri_MSFontService,sans-serif" font-weight="400" font-size="21" transform="translate(485.835 215)">6 GB<tspan font-size="21" x="-0.417633" y="71">4 GB</tspan><tspan font-size="21" x="0" y="167">6 GB</tspan></text></g></svg>